<svg id="logo-svg" xmlns="http://www.w3.org/2000/svg" version="1.1" width="378px" height="340px" viewBox="0 0 378 340">
    <g>
        <path vector-effect="non-scaling-stroke" class="light-green" style="opacity:0.948" fill="#fff" d="M 145.5,-0.5 C 148.833,-0.5 152.167,-0.5 155.5,-0.5C 156.848,0.60064 158.348,1.60064 160,2.5C 169.91,24.6505 180.076,46.6505 190.5,68.5C 200.616,46.994 210.45,25.3273 220,3.5C 221.812,2.02294 223.645,0.689603 225.5,-0.5C 228.5,-0.5 231.5,-0.5 234.5,-0.5C 237.968,0.804883 240.301,3.30488 241.5,7C 240.391,19.4645 239.557,31.9645 239,44.5C 225.421,63.325 212.087,82.325 199,101.5C 198.667,133.5 198.333,165.5 198,197.5C 193.825,200.715 189.325,201.215 184.5,199C 183.299,198.097 182.465,196.931 182,195.5C 181.667,163.5 181.333,131.5 181,99.5C 167.333,82.5 153.667,65.5 140,48.5C 139.333,33.8333 139.333,19.1667 140,4.5C 141.352,2.25103 143.185,0.584365 145.5,-0.5 Z"/>
    </g>
    <g>
        <path vector-effect="non-scaling-stroke" class="green" style="opacity:0.944" fill="#fff" d="M 89.5,14.5 C 96.4892,14.0778 101.989,16.7445 106,22.5C 126.289,47.7914 146.956,72.7914 168,97.5C 172.009,103.124 170.842,107.29 164.5,110C 161.5,110.667 158.5,110.667 155.5,110C 112.165,100.766 68.8315,91.5998 25.5,82.5C 25.5717,74.1075 25.405,65.7741 25,57.5C 27.4579,53.4459 31.1245,51.4459 36,51.5C 67.5437,61.9034 98.877,72.9034 130,84.5C 130.667,83.8333 130.667,83.1667 130,82.5C 114.333,63.8333 98.6667,45.1667 83,26.5C 81.627,24.3046 81.2937,21.9712 82,19.5C 84.1699,17.1769 86.6699,15.5103 89.5,14.5 Z"/>
    </g>
    <g>
        <path vector-effect="non-scaling-stroke" class="yellow" style="opacity:0.944" fill="#fff" d="M 285.5,14.5 C 290.801,14.0993 295.301,15.766 299,19.5C 299.667,21.1667 299.667,22.8333 299,24.5C 283.406,44.0171 267.572,63.3505 251.5,82.5C 252,82.8333 252.5,83.1667 253,83.5C 283.549,72.4285 314.216,61.7618 345,51.5C 349.875,51.4459 353.542,53.4459 356,57.5C 355.946,65.8197 355.779,74.153 355.5,82.5C 312.472,91.4724 269.472,100.639 226.5,110C 221.56,111.041 216.894,110.374 212.5,108C 209.819,103.854 210.319,100.021 214,96.5C 235.044,71.7914 255.711,46.7914 276,21.5C 278.529,18.1151 281.696,15.7818 285.5,14.5 Z"/>
    </g>
    <g>
        <path vector-effect="non-scaling-stroke" class="blue" style="opacity:0.934" fill="#fff" d="M 7.5,89.5 C 54.941,97.6212 102.274,106.455 149.5,116C 159.636,120.054 159.97,124.72 150.5,130C 105.427,144.469 60.4269,159.136 15.5,174C 13.9512,175.214 12.7845,176.714 12,178.5C 11.6667,203.833 11.3333,229.167 11,254.5C 10.2421,256.91 8.5754,257.91 6,257.5C 3.96578,257.646 2.29911,256.98 1,255.5C 0.0130196,218.415 0.346353,181.415 2,144.5C 36.3487,136.83 70.8487,129.663 105.5,123C 72.1074,116.588 38.7741,109.921 5.5,103C 1.74697,101.326 0.246971,98.4928 1,94.5C 2.80493,92.1743 4.9716,90.5077 7.5,89.5 Z"/>
    </g>
    <g>
        <path vector-effect="non-scaling-stroke" class="orange" style="opacity:0.943" fill="#fff" d="M 377.5,93.5 C 377.5,95.8333 377.5,98.1667 377.5,100.5C 375.473,102.18 373.139,103.347 370.5,104C 338.167,110.333 305.833,116.667 273.5,123C 308.295,129.726 342.962,136.892 377.5,144.5C 377.5,181.833 377.5,219.167 377.5,256.5C 374.094,258.084 370.928,257.75 368,255.5C 367.667,229.833 367.333,204.167 367,178.5C 366.215,176.714 365.049,175.214 363.5,174C 317.573,158.802 271.573,143.802 225.5,129C 219.374,122.686 220.707,118.353 229.5,116C 273.854,107.441 318.187,98.7744 362.5,90C 368.146,88.6761 373.146,89.8428 377.5,93.5 Z"/>
    </g>
    <g>
        <path vector-effect="non-scaling-stroke" class="purple" style="opacity:0.96" fill="#fff" d="M 98.5,339.5 C 95.8333,339.5 93.1667,339.5 90.5,339.5C 85.5166,338.014 82.3499,334.681 81,329.5C 80.0399,293.8 80.3733,258.133 82,222.5C 83.6078,219.228 85.6078,216.228 88,213.5C 101.833,197 115.667,180.5 129.5,164C 100.026,173.437 70.6927,183.604 41.5,194.5C 40.6668,227.495 40.1668,260.495 40,293.5C 39.5,295.333 38.3333,296.5 36.5,297C 33.5,297.667 30.5,297.667 27.5,297C 25.6667,296.5 24.5,295.333 24,293.5C 23.3333,257.833 23.3333,222.167 24,186.5C 24.8333,184.333 26.3333,182.833 28.5,182C 71.6047,166.632 114.771,151.465 158,136.5C 160.185,136.921 162.351,137.421 164.5,138C 165.126,138.75 165.626,139.584 166,140.5C 166.667,173.5 166.667,206.5 166,239.5C 145.667,271.167 125.333,302.833 105,334.5C 103.035,336.55 100.868,338.217 98.5,339.5 Z"/>
    </g>
    <g>
        <path vector-effect="non-scaling-stroke" class="red" style="opacity:0.973" fill="#fff" d="M 287.5,339.5 C 284.833,339.5 282.167,339.5 279.5,339.5C 276.614,338.121 274.114,336.121 272,333.5C 252.249,302.33 232.249,271.33 212,240.5C 211.333,206.833 211.333,173.167 212,139.5C 216.124,136.146 220.624,135.646 225.5,138C 268.212,152.625 310.545,168.125 352.5,184.5C 353.66,221.125 353.827,257.792 353,294.5C 348,298.5 343,298.5 338,294.5C 337.5,261.168 337.333,227.835 337.5,194.5C 307.784,184.207 278.117,174.04 248.5,164C 262.956,182.125 277.79,199.959 293,217.5C 294.275,219.717 295.275,222.051 296,224.5C 296.667,260.167 296.667,295.833 296,331.5C 293.926,335.077 291.093,337.744 287.5,339.5 Z"/>
    </g>
</svg>