<?xml version="1.0" standalone="no"?>
<!DOCTYPE svg PUBLIC "-//W3C//DTD SVG 20010904//EN"
 "http://www.w3.org/TR/2001/REC-SVG-20010904/DTD/svg10.dtd">
<svg version="1.0" xmlns="http://www.w3.org/2000/svg"
 width="378.000000pt" height="378.000000pt" viewBox="0 0 378.000000 378.000000"
 preserveAspectRatio="xMidYMid meet">
<metadata>
Created by potrace 1.14, written by Peter Selinger 2001-2017
</metadata>
<g transform="translate(0.000000,378.000000) scale(0.100000,-0.100000)"
fill="#000000" stroke="none">
<path d="M1469 3583 c-15 -2 -35 -13 -45 -24 -16 -18 -18 -42 -19 -234 l-1
-213 104 -129 c57 -70 114 -139 125 -153 84 -98 178 -221 187 -244 6 -17 10
-196 10 -496 0 -413 2 -470 16 -484 8 -9 22 -17 30 -17 8 -1 20 -2 27 -3 26
-4 69 17 77 39 5 12 8 232 8 489 0 495 -2 478 44 531 5 5 88 120 185 254 l176
244 4 121 c12 282 12 277 -24 302 -36 24 -100 25 -137 1 -14 -9 -61 -102 -131
-258 -145 -325 -195 -432 -199 -428 -2 2 -18 38 -36 79 -18 41 -49 111 -70
155 -20 44 -72 160 -116 259 -50 114 -87 184 -101 193 -25 16 -72 23 -114 16z"/>
<path d="M862 3414 c-48 -33 -45 -64 15 -129 10 -11 36 -43 58 -70 22 -28 48
-59 57 -70 142 -169 338 -409 335 -411 -4 -4 9 -8 -507 176 -445 159 -481 168
-529 132 -25 -19 -26 -23 -27 -133 0 -63 1 -121 3 -129 3 -11 32 -21 91 -33
48 -10 148 -31 222 -47 110 -24 484 -104 581 -124 45 -10 314 -67 334 -72 65
-15 104 -20 126 -17 61 8 96 49 76 88 -9 17 -74 98 -173 215 -25 28 -214 257
-383 463 -62 75 -124 146 -138 157 -32 25 -109 27 -141 4z"/>
<path d="M2833 3423 c-12 -4 -101 -104 -158 -177 -16 -21 -35 -44 -40 -50 -6
-6 -57 -67 -114 -136 -56 -69 -110 -134 -119 -145 -10 -11 -60 -72 -112 -135
-52 -63 -97 -117 -100 -120 -26 -23 -70 -92 -70 -109 0 -27 37 -61 69 -63 14
0 33 -2 41 -3 8 -1 24 2 36 6 11 4 34 10 50 12 16 3 72 14 124 26 52 11 106
22 120 25 29 5 75 15 215 46 55 12 109 24 120 26 11 2 85 18 165 35 80 17 156
33 170 35 14 3 39 9 55 14 17 4 68 16 115 25 47 9 102 21 123 26 l38 10 -3
126 c-3 122 -4 126 -29 145 -14 11 -42 19 -65 20 -26 0 -193 -55 -503 -166
-256 -91 -466 -165 -467 -163 -3 2 48 64 309 379 195 235 196 237 186 267 -6
16 -21 33 -35 40 -25 11 -98 14 -121 4z"/>
<path d="M69 2673 c-38 -16 -49 -29 -49 -60 0 -31 42 -59 107 -72 32 -5 69
-13 83 -16 14 -2 52 -10 85 -16 62 -11 275 -52 598 -116 103 -20 182 -40 175
-44 -7 -3 -35 -10 -63 -14 -27 -5 -54 -9 -60 -11 -5 -1 -50 -10 -100 -19 -49
-9 -97 -18 -105 -20 -8 -2 -157 -31 -330 -64 -173 -34 -324 -63 -335 -66 -11
-2 -29 -11 -40 -19 -20 -14 -20 -26 -21 -556 0 -454 2 -543 14 -552 19 -16 42
-19 63 -7 17 9 19 37 21 400 l3 391 27 23 c25 22 126 56 718 246 85 28 180 58
210 69 30 10 148 48 261 84 205 66 239 83 239 123 0 42 -56 64 -245 96 -16 3
-76 15 -133 26 -56 11 -117 23 -135 26 -17 3 -39 8 -48 11 -10 2 -30 6 -45 8
-16 3 -74 13 -129 25 -55 11 -115 23 -133 26 -18 3 -63 12 -100 19 -37 8 -83
17 -102 20 -19 3 -67 12 -105 20 -39 8 -84 17 -100 20 -16 3 -51 10 -79 16
-85 17 -112 18 -147 3z"/>
<path d="M3658 2685 c-2 -2 -19 -6 -38 -9 -19 -3 -46 -8 -60 -11 -46 -10 -85
-17 -105 -20 -11 -2 -56 -11 -100 -19 -44 -9 -90 -18 -103 -21 -13 -2 -31 -6
-40 -9 -9 -3 -35 -7 -57 -11 -22 -3 -85 -15 -140 -26 -55 -12 -111 -23 -125
-25 -14 -2 -126 -23 -250 -48 -124 -24 -258 -50 -299 -57 -59 -11 -78 -19 -97
-42 -20 -24 -22 -32 -12 -50 6 -12 16 -25 22 -29 12 -9 217 -76 581 -193 132
-43 278 -90 325 -105 47 -16 166 -54 265 -86 99 -31 192 -63 207 -70 52 -27
53 -31 55 -434 0 -206 2 -378 2 -383 2 -17 48 -29 70 -18 l21 12 0 544 c0 470
-2 546 -15 559 -8 8 -39 19 -68 25 -160 32 -667 131 -697 136 -19 3 -42 8 -50
10 -8 2 -26 6 -40 9 -44 7 -104 19 -125 23 -11 2 -31 6 -45 9 -37 8 -35 11 12
19 24 4 122 22 218 41 159 31 283 55 350 68 14 3 95 18 180 35 85 17 171 33
190 36 48 8 78 30 86 62 6 21 2 31 -20 50 -15 13 -35 23 -44 24 -9 0 -25 2
-34 4 -9 2 -18 2 -20 0z"/>
<path d="M1540 2203 c-8 -3 -76 -27 -150 -53 -74 -27 -205 -73 -290 -103 -85
-30 -173 -62 -195 -70 -22 -9 -170 -61 -330 -117 -159 -57 -299 -111 -309
-121 -18 -17 -19 -39 -20 -531 -1 -282 1 -526 3 -541 6 -47 74 -67 129 -38 12
6 23 17 23 24 1 7 2 232 3 501 l1 489 65 22 c70 24 320 114 410 147 30 11 123
44 205 73 83 29 169 60 193 69 30 11 41 12 35 3 -6 -11 -79 -99 -385 -469 -49
-59 -93 -122 -99 -140 -5 -19 -9 -258 -9 -551 0 -581 -3 -553 73 -587 43 -20
87 -17 123 7 25 16 30 23 211 303 66 102 191 295 278 430 l159 245 0 493 c1
476 0 494 -19 508 -18 14 -75 18 -105 7z"/>
<path d="M2137 2188 c-13 -19 -15 -95 -15 -503 1 -375 4 -486 14 -506 7 -14
39 -66 71 -115 87 -131 306 -470 323 -498 140 -230 240 -364 273 -367 7 0 22
-2 35 -3 36 -4 98 32 115 65 21 45 18 1071 -4 1110 -8 14 -57 77 -109 140 -52
62 -102 122 -110 133 -8 10 -20 23 -25 30 -6 6 -28 34 -50 61 -22 28 -43 52
-47 55 -4 3 -20 22 -35 42 -16 20 -47 59 -71 86 -42 49 -42 51 -15 42 26 -8
183 -63 348 -123 39 -14 174 -62 300 -107 127 -45 234 -85 238 -90 5 -4 9
-229 9 -499 0 -474 1 -491 20 -508 27 -24 104 -22 123 3 20 26 22 1071 3 1096
-13 17 -62 37 -248 103 -58 20 -127 45 -155 56 -424 157 -879 313 -922 317
-45 3 -53 1 -66 -20z"/>
</g>
</svg>
